<?xml version="1.0" standalone="no"?>
<!DOCTYPE svg PUBLIC "-//W3C//DTD SVG 20010904//EN"
 "http://www.w3.org/TR/2001/REC-SVG-20010904/DTD/svg10.dtd">
<svg version="1.0" xmlns="http://www.w3.org/2000/svg"
 width="1093.000000pt" height="442.000000pt" viewBox="0 0 1093.000000 442.000000"
 preserveAspectRatio="xMidYMid meet">
<metadata>
Created by potrace 1.15, written by Peter Selinger 2001-2017
</metadata>
<g transform="translate(0.000000,442.000000) scale(0.100000,-0.100000)"
fill="#000000" stroke="none">
<path d="M380 4397 c-148 -51 -261 -150 -331 -292 l-44 -88 -3 -1786 c-2
-1629 -1 -1790 14 -1836 59 -181 206 -327 383 -379 49 -14 233 -16 1813 -16
1757 0 1759 0 1821 21 175 59 326 217 372 390 13 46 15 318 15 1799 0 1162 -4
1760 -11 1790 -39 170 -206 347 -377 400 -63 20 -96 20 -1826 20 l-1761 -1
-65 -22z m814 -1136 c14 -13 32 -45 39 -70 8 -25 145 -423 306 -884 204 -588
289 -846 285 -863 -9 -37 -60 -74 -100 -74 -77 0 -80 6 -199 348 l-88 252
-402 0 -403 0 -92 -270 c-82 -241 -96 -273 -127 -300 -46 -41 -94 -41 -134 -1
-21 21 -29 39 -29 63 0 28 238 732 556 1645 45 129 68 165 109 176 11 3 73 5
137 4 108 -2 118 -4 142 -26z m1656 -37 l25 -24 0 -891 0 -891 -28 -24 c-28
-24 -30 -24 -250 -24 -244 0 -299 8 -391 58 -73 39 -168 132 -203 199 -56 105
-63 146 -63 368 0 217 7 260 58 360 36 72 143 174 222 212 90 43 149 53 315
53 l145 0 0 288 c0 318 1 323 63 341 43 12 77 4 107 -25z m1153 -5 l27 -29 0
-881 0 -881 -29 -29 -29 -29 -224 0 c-123 0 -243 5 -268 11 -177 41 -338 202
-379 379 -16 70 -14 414 4 479 47 179 189 319 372 366 38 10 106 15 205 15
l148 0 0 284 0 284 25 31 c42 49 102 49 148 0z"/>
<path d="M1006 3054 c-4 -15 -72 -213 -152 -441 -79 -228 -144 -419 -144 -424
0 -5 131 -9 325 -9 200 0 325 4 325 10 0 8 -263 770 -294 850 -17 45 -51 53
-60 14z"/>
<path d="M2363 2406 c-59 -19 -107 -51 -152 -102 -64 -73 -73 -114 -69 -326 3
-170 5 -186 27 -232 31 -63 84 -116 147 -147 44 -22 64 -24 207 -27 l157 -4 0
426 0 426 -137 -1 c-84 0 -154 -5 -180 -13z"/>
<path d="M3503 2401 c-97 -33 -170 -110 -199 -208 -12 -42 -15 -92 -12 -226 3
-165 4 -174 30 -224 34 -64 85 -114 146 -144 42 -21 65 -24 205 -27 l157 -4 0
426 0 426 -137 0 c-106 -1 -150 -5 -190 -19z"/>
<path d="M5604 3350 c-11 -4 -27 -19 -36 -32 -13 -20 -257 -718 -534 -1530
-82 -239 -84 -248 -70 -281 30 -72 101 -88 159 -37 31 27 45 59 127 300 l92
270 402 0 401 0 95 -272 c106 -305 119 -328 188 -328 47 0 96 35 106 76 10 38
-597 1790 -631 1822 -22 20 -33 22 -151 21 -70 0 -136 -4 -148 -9z m312 -645
c85 -242 154 -443 154 -447 0 -5 -146 -8 -325 -8 -204 0 -325 4 -325 10 0 5
65 196 144 423 80 228 148 426 152 441 5 20 12 26 26 24 17 -2 46 -76 174
-443z"/>
<path d="M9455 3322 c-33 -11 -51 -26 -64 -49 -15 -30 -16 -1369 0 -1445 25
-121 108 -242 213 -310 93 -60 166 -78 313 -78 124 0 125 0 154 29 38 39 40
97 5 138 -23 27 -28 28 -143 33 -103 5 -127 10 -175 33 -64 31 -111 80 -142
146 -20 43 -21 65 -24 359 l-3 312 185 0 c181 0 185 1 213 24 24 21 28 32 28
76 0 44 -4 55 -28 76 -28 23 -32 24 -213 24 l-184 0 0 285 0 285 -27 30 c-29
31 -73 44 -108 32z"/>
<path d="M6734 2675 c-44 -30 -45 -32 -42 -838 l3 -769 28 -24 c42 -36 109
-34 148 5 l29 29 0 221 c0 122 2 221 4 221 2 0 23 -11 47 -24 103 -58 272 -73
391 -36 188 58 322 220 349 420 18 130 6 388 -20 472 -40 127 -168 259 -298
308 -39 15 -89 24 -154 27 -108 6 -177 -9 -267 -57 l-52 -28 -6 24 c-14 56
-109 85 -160 49z m588 -217 c56 -24 111 -82 142 -147 19 -42 21 -63 21 -251 0
-203 0 -205 -27 -256 -30 -57 -77 -103 -141 -136 -64 -34 -184 -32 -253 4 -56
30 -102 77 -136 141 -22 40 -23 53 -23 252 0 201 1 212 24 255 77 149 237 205
393 138z"/>
<path d="M7899 2661 l-29 -29 0 -780 0 -780 31 -26 c63 -53 157 -23 173 55 3
18 6 119 6 226 l0 195 33 -20 c17 -11 65 -30 105 -42 96 -29 246 -25 332 9
106 42 214 141 266 243 45 89 54 148 54 353 0 270 -22 343 -136 465 -101 107
-222 160 -364 160 -92 0 -177 -21 -247 -61 -49 -27 -53 -28 -53 -10 0 11 -14
31 -31 45 -44 37 -101 36 -140 -3z m598 -201 c58 -25 118 -91 143 -156 18 -48
20 -78 20 -248 l0 -193 -31 -62 c-109 -218 -421 -210 -525 13 -23 48 -24 62
-24 252 l0 201 31 61 c28 57 72 102 127 131 64 34 183 34 259 1z"/>
<path d="M10295 2678 c-45 -26 -44 -15 -45 -616 l0 -573 26 -24 c29 -27 98
-34 134 -15 43 23 45 36 50 477 l5 421 30 44 c17 23 51 54 75 68 40 22 59 25
178 28 l132 4 25 30 c40 48 30 131 -20 158 -15 8 -70 11 -181 8 -136 -3 -166
-7 -206 -26 l-48 -21 -24 24 c-28 28 -94 34 -131 13z"/>
</g>
</svg>
